# xmcd
#
# Track frame offsets: 
#        150
#        23131
#        50808
#        80189
#        102988
#        146860
#        171369
#        198488
#        218527
#        242925
#        260079
#
# Disc length: 3695 seconds
#
# Revision: 0
# Processed by: cddbd v1.5.2PL0 Copyright (c) Steve Scherf et al.
# Submitted via: ExactAudioCopy v1.3
#
DISCID=ac0e6d0b
DTITLE=Buddy Guy and Junior Wells - Bringin' the Blues Back Home (Live 1
DTITLE=985)
DYEAR=2019
DGENRE=Blues
TTITLE0=Look Over Yonder Wall (Live 1985)
TTITLE1=Crazy About You (Live 1985)
TTITLE2=I Just Wanna Make Love To You (Live 1985)
TTITLE3=Any Way You Look At It (Live 1985)
TTITLE4=Don't Ever Leave Me (Live 1985)
TTITLE5=Make Me Feel So Good (Live 1985)
TTITLE6=Messin' With the Kid (Live 1985)
TTITLE7=Nothing In This World (Live 1985)
TTITLE8=Got My Mojo Workin' (Live 1985)
TTITLE9=Sex Machine (Live 1985)
TTITLE10=I Feel Good (Live 1985)
EXTD=
EXTT0=
EXTT1=
EXTT2=
EXTT3=
EXTT4=
EXTT5=
EXTT6=
EXTT7=
EXTT8=
EXTT9=
EXTT10=
PLAYORDER=
